<svg width="24" height="21" viewBox="0 0 24 21" fill="none" xmlns="http://www.w3.org/2000/svg">
<g clip-path="url(#clip0_2_537)">
<path d="M7.55 20.4636C16.605 20.4636 21.558 12.9596 21.558 6.45565C21.558 6.24465 21.554 6.02865 21.544 5.81765C22.508 5.12065 23.34 4.25765 24 3.26865C23.102 3.66765 22.15 3.92865 21.174 4.04165C22.201 3.42665 22.971 2.45865 23.339 1.31865C22.373 1.89165 21.316 2.29565 20.213 2.51365C19.471 1.72465 18.489 1.20265 17.42 1.02765C16.35 0.852647 15.253 1.03465 14.298 1.54565C13.342 2.05665 12.582 2.86765 12.134 3.85465C11.686 4.84165 11.575 5.94765 11.819 7.00365C9.862 6.90565 7.948 6.39665 6.2 5.51165C4.452 4.62565 2.91 3.38265 1.673 1.86265C1.044 2.94665 0.852 4.22865 1.135 5.44965C1.418 6.66965 2.155 7.73665 3.196 8.43365C2.415 8.40865 1.65 8.19765 0.966 7.81965V7.88065C0.965 9.01765 1.358 10.1196 2.078 10.9996C2.799 11.8806 3.801 12.4836 4.916 12.7086C4.192 12.9066 3.432 12.9356 2.695 12.7926C3.009 13.7706 3.622 14.6266 4.446 15.2396C5.27 15.8526 6.265 16.1936 7.292 16.2146C5.548 17.5846 3.394 18.3276 1.177 18.3236C0.783 18.3236 0.39 18.2996 0 18.2516C2.253 19.6966 4.874 20.4646 7.55 20.4636Z" fill="white"/>
</g>
<defs>
<clipPath id="clip0_2_537">
<rect width="24" height="20" fill="white" transform="translate(0 0.5)"/>
</clipPath>
</defs>
</svg>
