<svg width="24" height="25" viewBox="0 0 24 25" fill="none" xmlns="http://www.w3.org/2000/svg">
<g opacity="0.7" clip-path="url(#clip0_2_553)">
<g clip-path="url(#clip1_2_553)">
<path d="M23.7609 7.66641C23.7609 7.66641 23.5266 6.10365 22.8047 5.41745C21.8906 4.51433 20.8688 4.5099 20.4 4.45677C17.0438 4.22656 12.0047 4.22656 12.0047 4.22656H11.9953C11.9953 4.22656 6.95625 4.22656 3.6 4.45677C3.13125 4.5099 2.10938 4.51433 1.19531 5.41745C0.473438 6.10365 0.24375 7.66641 0.24375 7.66641C0.24375 7.66641 0 9.50365 0 11.3365V13.0542C0 14.887 0.239062 16.7242 0.239062 16.7242C0.239062 16.7242 0.473437 18.287 1.19062 18.9732C2.10469 19.8763 3.30469 19.8453 3.83906 19.9427C5.76094 20.1154 12 20.1685 12 20.1685C12 20.1685 17.0438 20.1596 20.4 19.9339C20.8688 19.8807 21.8906 19.8763 22.8047 18.9732C23.5266 18.287 23.7609 16.7242 23.7609 16.7242C23.7609 16.7242 24 14.8914 24 13.0542V11.3365C24 9.50365 23.7609 7.66641 23.7609 7.66641ZM9.52031 15.1393V8.76875L16.0031 11.9651L9.52031 15.1393Z" fill="white"/>
</g>
</g>
<defs>
<clipPath id="clip0_2_553">
<rect width="24" height="17" fill="white" transform="translate(0 3.5)"/>
</clipPath>
<clipPath id="clip1_2_553">
<rect width="24" height="17" fill="white" transform="translate(0 3.5)"/>
</clipPath>
</defs>
</svg>
