<svg width="24" height="25" viewBox="0 0 24 25" fill="none" xmlns="http://www.w3.org/2000/svg">
<g clip-path="url(#clip0_2_547)">
<g opacity="0.7" clip-path="url(#clip1_2_547)">
<g clip-path="url(#clip2_2_547)">
<path d="M16.3548 0.695435H12.5027V15.7354C12.5027 17.5275 11.0211 18.9995 9.17739 18.9995C7.33366 18.9995 5.85209 17.5275 5.85209 15.7354C5.85209 13.9754 7.30073 12.5354 9.07864 12.4714V8.69545C5.16069 8.75942 2 11.8634 2 15.7354C2 19.6394 5.22653 22.7754 9.21033 22.7754C13.1941 22.7754 16.4206 19.6074 16.4206 15.7354V8.02342C17.8692 9.04744 19.6471 9.65544 21.5238 9.68746V5.91144C18.6266 5.81544 16.3548 3.51143 16.3548 0.695435Z" fill="white"/>
</g>
</g>
</g>
<defs>
<clipPath id="clip0_2_547">
<rect width="24" height="24" fill="white" transform="translate(0 0.5)"/>
</clipPath>
<clipPath id="clip1_2_547">
<rect width="20" height="23" fill="white" transform="translate(2 0.5)"/>
</clipPath>
<clipPath id="clip2_2_547">
<rect width="20" height="23" fill="white" transform="translate(2 0.5)"/>
</clipPath>
</defs>
</svg>
